<svg id="Layer_1" data-name="Layer 1" xmlns="http://www.w3.org/2000/svg" viewBox="0 0 500 250"><defs><style>.cls-1{fill:#f55036;opacity:0;}</style></defs><rect class="cls-1" width="500" height="250"/><g id="Layer_2" data-name="Layer 2"><g id="Layer_2-2" data-name="Layer 2-2"><path d="M278.79,41.62a57.3,57.3,0,1,0,57.3,57.29h0A57.34,57.34,0,0,0,278.79,41.62Zm0,93.11a35.81,35.81,0,1,1,35.82-35.81,35.81,35.81,0,0,1-35.82,35.81Z"/><path d="M199.69,41.82a54.91,54.91,0,0,0-5.88-.36c-1,0-1.92,0-2.88,0s-1.92.11-2.87.16a63.15,63.15,0,0,0-11.42,2,58,58,0,0,0-21,10.57,52.5,52.5,0,0,0-14.86,18.89A50.61,50.61,0,0,0,137,84.59a56.46,56.46,0,0,0-.86,5.93c-.06,1-.18,2-.19,3l0,1.47v1.36l0,19.18.05,19.19.13,19.18h21.49l.13-19.18,0-19.19.05-19.18v-1l0-.92c0-.61.08-1.21.12-1.82a32.68,32.68,0,0,1,.53-3.55,31.06,31.06,0,0,1,2.18-6.7,30.31,30.31,0,0,1,8.62-11,36,36,0,0,1,13-6.59,40.93,40.93,0,0,1,7.46-1.33c.64,0,1.27-.1,1.91-.12s1.3,0,1.92,0c1.23,0,2.45.08,3.68.2a35.44,35.44,0,0,1,13.92,4.41L222,49.2A57.24,57.24,0,0,0,199.69,41.82Z"/><path d="M62.51,41.33a57.3,57.3,0,0,0-1.06,114.59H81.36V134.45H62.51a35.81,35.81,0,1,1-.84-71.62h.84A35.92,35.92,0,0,1,98.4,98.63h0v52.76h0a36,36,0,0,1-35.54,35.8,35.56,35.56,0,0,1-24.92-10.48l-15.19,15.2a56.93,56.93,0,0,0,39.72,16.77h.79a57.35,57.35,0,0,0,56.51-57V97.22A57.34,57.34,0,0,0,62.51,41.33Z"/><path d="M405.3,41.62a57.3,57.3,0,0,0,0,114.59h19.6V134.72H405.3A35.81,35.81,0,1,1,441,95.81h0v110H462.4V98.91h0A57.17,57.17,0,0,0,405.3,41.62Z"/><polygon points="495.26 44.53 492.2 44.53 488.02 51.02 483.7 44.53 480.61 44.53 480.61 56.08 484.07 56.08 484.07 50.46 487.13 54.99 488.8 54.99 491.81 50.32 491.87 56.08 495.32 56.08 495.26 44.53"/><polygon points="467.97 47.29 471.73 47.29 471.73 56.08 475.52 56.08 475.52 47.29 479.3 47.29 479.3 44.53 467.97 44.53 467.97 47.29"/></g></g></svg>